HIERARCHY
ROOT SimulationBone
{
	OFFSET 0.000000 0.000000 0.000000
	CHANNELS 6 Xposition Yposition Zposition Zrotation Yrotation Xrotation 
	JOINT Hips
	{
		OFFSET 0.000000 0.000000 0.000000
		CHANNELS 6 Xposition Yposition Zposition Zrotation Yrotation Xrotation 
		JOINT LeftUpLeg
		{
			OFFSET 0.103462 1.857831 10.548502
			CHANNELS 3 Zrotation Yrotation Xrotation
			JOINT LeftLeg
			{
				OFFSET 43.500008 -0.000027 -0.000004
				CHANNELS 3 Zrotation Yrotation Xrotation
				JOINT LeftFoot
				{
					OFFSET 42.372200 0.000011 -0.000002
					CHANNELS 3 Zrotation Yrotation Xrotation
					JOINT LeftToe
					{
						OFFSET 17.299999 -0.000001 -0.000002
						CHANNELS 3 Zrotation Yrotation Xrotation
						End Site
						{
							OFFSET 0.000000 0.000000 0.000000
						}
					}
				}
			}
		}
		JOINT RightUpLeg
		{
			OFFSET 0.103458 1.857828 -10.548501
			CHANNELS 3 Zrotation Yrotation Xrotation
			JOINT RightLeg
			{
				OFFSET 43.500038 -0.000031 0.000011
				CHANNELS 3 Zrotation Yrotation Xrotation
				JOINT RightFoot
				{
					OFFSET 42.372257 -0.000004 0.000010
					CHANNELS 3 Zrotation Yrotation Xrotation
					JOINT RightToe
					{
						OFFSET 17.299994 -0.000005 0.000004
						CHANNELS 3 Zrotation Yrotation Xrotation
						End Site
						{
							OFFSET 0.000000 0.000000 0.000000
						}
					}
				}
			}
		}
		JOINT Spine
		{
			OFFSET 6.901966 -2.603733 0.000000
			CHANNELS 3 Zrotation Yrotation Xrotation
			JOINT Spine1
			{
				OFFSET 12.588101 0.000002 0.000000
				CHANNELS 3 Zrotation Yrotation Xrotation
				JOINT Spine2
				{
					OFFSET 12.343201 0.000004 -0.000002
					CHANNELS 3 Zrotation Yrotation Xrotation
					JOINT Neck
					{
						OFFSET 25.832895 -0.000004 0.000002
						CHANNELS 3 Zrotation Yrotation Xrotation
						JOINT Head
						{
							OFFSET 11.766604 0.000011 0.000001
							CHANNELS 3 Zrotation Yrotation Xrotation
							End Site
							{
								OFFSET 0.000000 0.000000 0.000000
							}
						}
					}
					JOINT LeftShoulder
					{
						OFFSET 19.745903 -1.480368 6.000108
						CHANNELS 3 Zrotation Yrotation Xrotation
						JOINT LeftArm
						{
							OFFSET 11.284126 -0.000007 -0.000022
							CHANNELS 3 Zrotation Yrotation Xrotation
							JOINT LeftForeArm
							{
								OFFSET 33.000053 0.000001 0.000028
								CHANNELS 3 Zrotation Yrotation Xrotation
								JOINT LeftHand
								{
									OFFSET 25.200005 0.000019 0.000013
									CHANNELS 3 Zrotation Yrotation Xrotation
									End Site
									{
										OFFSET 0.000000 0.000000 0.000000
									}
								}
							}
						}
					}
					JOINT RightShoulder
					{
						OFFSET 19.746094 -1.480373 -6.000072
						CHANNELS 3 Zrotation Yrotation Xrotation
						JOINT RightArm
						{
							OFFSET 11.284138 -0.000017 -0.000010
							CHANNELS 3 Zrotation Yrotation Xrotation
							JOINT RightForeArm
							{
								OFFSET 33.000092 0.000013 0.000009
								CHANNELS 3 Zrotation Yrotation Xrotation
								JOINT RightHand
								{
									OFFSET 25.199776 0.000139 0.000415
									CHANNELS 3 Zrotation Yrotation Xrotation
									End Site
									{
										OFFSET 0.000000 0.000000 0.000000
									}
								}
							}
						}
					}
				}
			}
		}
	}
}
MOTION
Frames: 13
Frame Time: 0.016667
-111.283159 0.000000 -25.608061 0.000000 91.800785 0.000000 -0.899175 89.346336 2.296336 94.597370 2.603440 -179.917602 167.592188 -12.677096 -179.969092 -31.550531 -3.626346 -1.559716 79.750360 -0.520515 -6.852521 21.454560 0.003106 0.000016 160.254584 10.207114 -174.080444 -50.266281 -0.480051 8.077214 73.576436 -2.733096 10.140540 21.454553 -0.003098 -0.000000 9.426592 -0.990392 -1.234498 8.862445 -1.883293 -2.541508 8.544514 -1.898759 -2.530083 -4.429193 15.126238 7.596702 -18.822543 -16.610112 17.447425 -168.448132 -76.352228 -13.256978 -10.035078 51.919071 12.511364 -39.600592 -17.447378 1.634548 9.029240 -4.196504 21.507881 -155.211757 79.578357 26.744342 10.620265 -50.768556 -24.159942 -31.972996 15.802437 -1.320824 10.242356 1.139107 -10.233449 
-111.690505 0.000000 -25.996602 0.000000 91.612577 0.000000 -0.907345 89.775847 2.283928 94.092983 2.764270 -179.697844 168.336939 -12.633846 179.635412 -29.635045 -3.751133 -1.542374 79.206470 -0.461139 -6.460846 21.454560 0.003119 0.000016 159.685722 8.029380 -174.040141 -49.483162 0.486241 6.532316 75.070708 -1.998689 9.344886 21.454552 -0.003093 -0.000001 9.152156 -0.964510 -1.340255 8.314490 -1.830244 -2.746610 7.996626 -1.846952 -2.735506 -4.689096 15.048380 7.675882 -18.153954 -16.216301 17.267520 -168.200304 -76.420409 -13.510072 -8.491597 51.464273 12.593605 -41.679388 -17.679286 1.710637 8.726604 -5.203618 21.234703 -155.977444 78.596111 25.986864 10.321811 -51.316727 -24.556815 -30.544483 15.173581 -1.246849 9.498070 -1.772668 -12.227068 
-112.097603 0.000000 -26.346723 0.000000 91.433421 0.000000 -0.862900 90.115417 2.234516 93.784393 2.802342 -179.546829 169.240148 -12.496401 179.291072 -27.866732 -4.009644 -1.562109 78.763739 -0.350919 -6.026965 21.454560 0.003115 0.000016 159.490791 6.023191 -173.702448 -48.121246 1.342705 4.748499 76.107882 -0.862852 9.188110 21.454553 -0.003095 -0.000001 8.927181 -0.946339 -1.448458 7.865645 -1.792104 -2.958136 7.547849 -1.810083 -2.947271 -4.923224 15.029461 7.769051 -17.490274 -16.273727 17.287405 -167.073434 -76.349304 -14.661082 -7.236386 51.076102 12.933458 -43.699792 -18.033660 1.786834 8.264975 -5.889264 20.005699 -156.198952 78.065321 25.772288 9.334030 -52.139566 -24.969844 -28.572099 14.760927 -1.187509 8.816434 -5.074570 -15.881691 
-112.504009 0.000000 -26.660320 0.000000 91.263040 0.000000 -0.774363 90.359992 2.141231 93.632325 2.681259 -179.460520 170.223398 -12.200850 179.072126 -26.296918 -4.381667 -1.667046 78.439405 -0.166010 -5.581797 21.454559 0.003105 0.000016 159.643753 4.267921 -173.298096 -46.230832 2.174863 2.859006 76.854729 0.512842 9.549294 21.454553 -0.003099 -0.000001 8.743445 -0.945587 -1.538159 7.499472 -1.789625 -3.134607 7.181730 -1.808661 -3.123766 -5.120911 14.964927 7.848645 -16.866951 -16.494160 17.345975 -165.580627 -76.191293 -16.186593 -6.294281 50.710068 13.272203 -45.646218 -18.373224 1.865071 7.697494 -6.261738 18.252450 -156.274233 77.822958 25.700503 7.918621 -53.062070 -25.259911 -26.432978 14.384295 -1.128492 8.639833 -8.633527 -20.915402 
-112.909278 0.000000 -26.939289 0.000000 91.101153 0.000000 -0.650302 90.504517 1.997347 93.597707 2.365656 -179.435777 171.208937 -11.686795 179.054693 -24.976446 -4.845352 -1.902506 78.250949 0.116698 -5.156030 21.454558 0.003101 0.000016 160.136381 2.842303 -173.050383 -43.861555 3.061000 0.998065 77.479582 1.978998 10.306505 21.454553 -0.003100 -0.000000 8.592747 -0.971880 -1.588381 7.199628 -1.843226 -3.234404 6.881907 -1.862858 -3.223243 -5.271512 14.750027 7.887740 -16.321464 -16.585969 17.289270 -164.213661 -76.006743 -17.584517 -5.687289 50.328115 13.352318 -47.499279 -18.560875 1.937021 7.060956 -6.322423 16.405846 -156.512581 77.704667 25.460064 6.343215 -53.902427 -25.299875 -24.507267 13.863712 -1.062053 9.382595 -12.235132 -27.123221 
-113.312963 0.000000 -27.185526 0.000000 90.947483 0.000000 -0.494276 90.554779 1.803018 93.663646 1.853058 -179.461786 172.156735 -10.929661 179.300614 -23.928721 -5.367414 -2.298308 78.202322 0.509640 -4.778427 21.454555 0.003108 0.000016 160.991751 1.771860 -173.087702 -41.057900 4.015801 -0.743772 78.073772 3.446808 11.392964 21.454551 -0.003094 0.000001 8.471980 -1.026209 -1.582224 6.959673 -1.955608 -3.223577 6.641927 -1.975173 -3.211731 -5.364783 14.291455 7.864760 -15.897580 -16.334165 17.006155 -163.305037 -75.843500 -18.514657 -5.442695 49.917000 12.963235 -49.237931 -18.500666 1.989739 6.409387 -6.063988 14.810178 -157.114931 77.592320 24.848557 4.852347 -54.548401 -25.067026 -23.097363 13.112040 -0.991192 11.339867 -15.590589 -34.241347 
-113.714619 0.000000 -27.400926 0.000000 90.801749 0.000000 -0.289577 90.559937 1.585424 93.900732 1.269884 -179.495191 173.169187 -10.038606 179.812202 -23.070409 -5.870806 -2.831393 78.242821 0.984425 -4.472045 21.454555 0.003113 0.000016 162.313244 0.851305 -173.186085 -37.843325 4.845495 -2.470941 78.444933 5.057154 12.943791 21.454551 -0.003088 0.000002 8.398519 -1.075212 -1.519231 6.813184 -2.059329 -3.099413 6.495374 -2.078143 -3.086935 -5.392677 13.542084 7.778185 -15.658881 -15.840336 16.534747 -162.721087 -75.660693 -19.113523 -5.623058 49.551980 12.072767 -50.847124 -18.259353 2.025700 5.889173 -5.476829 13.468101 -157.937987 77.556178 24.010488 3.539956 -55.188931 -24.870915 -22.187053 12.412734 -0.936086 14.419684 -18.468796 -41.498869 
-114.113801 0.000000 -27.587385 0.000000 90.663672 0.000000 -0.026830 90.568366 1.368633 94.354081 0.737617 -179.513669 174.330578 -9.129930 -179.497774 -22.319297 -6.271946 -3.440332 78.322513 1.491266 -4.241015 21.454557 0.003104 0.000016 164.128203 -0.124306 -173.153918 -34.315044 5.358128 -4.170442 78.334295 6.704693 14.460790 21.454554 -0.003087 0.000001 8.382485 -1.089735 -1.402034 6.779503 -2.095666 -2.865758 6.461608 -2.113064 -2.853065 -5.359523 12.509449 7.625625 -15.608077 -15.275949 15.936175 -162.271967 -75.421171 -19.575323 -6.246598 49.317121 10.748338 -52.313410 -17.956177 2.055614 5.601391 -4.570076 12.379665 -158.802636 77.678043 23.127210 2.424828 -56.025173 -25.029320 -21.677565 12.049040 -0.907290 18.260607 -20.697018 -48.033703 
-114.510063 0.000000 -27.746799 0.000000 90.532973 0.000000 0.252659 90.581932 1.137966 94.880854 0.231738 -179.606518 175.507066 -8.202804 -179.015843 -21.699224 -6.504864 -3.964185 78.452269 1.932467 -4.017586 21.454560 0.003099 0.000017 166.114148 -1.089798 -173.241765 -30.915853 5.479173 -5.084912 77.375940 7.022981 12.755390 21.454557 -0.003089 -0.000001 8.384260 -1.091288 -1.228705 6.780041 -2.108886 -2.519443 6.462041 -2.124191 -2.506676 -5.318352 11.373144 7.384408 -15.492136 -14.763811 15.233480 -161.924906 -75.206232 -19.932710 -7.108877 49.268940 9.283967 -53.616554 -17.760058 2.086701 5.374223 -3.443618 11.860453 -159.606055 77.892640 22.305190 1.397319 -56.976026 -25.602196 -21.468159 11.930684 -0.895786 22.126837 -21.955973 -53.345747 
-114.902960 0.000000 -27.881064 0.000000 90.409375 0.000000 0.508809 90.597821 0.880446 95.346519 -0.276499 -179.861787 176.555215 -7.237336 -179.057357 -21.244774 -6.538073 -4.281543 78.636400 2.237027 -3.742467 21.454559 0.003113 0.000018 167.959183 -1.933714 -173.722208 -28.059523 5.098108 -4.598968 75.603126 4.820879 5.725869 21.454555 -0.003088 -0.000002 8.367233 -1.100752 -1.000352 6.742104 -2.141468 -2.063278 6.423985 -2.154027 -2.050312 -5.304086 10.306318 7.055066 -15.111162 -14.381318 14.466075 -161.663295 -75.078540 -20.201901 -8.007248 49.438911 7.936627 -54.754292 -17.792056 2.127907 5.067053 -2.221760 12.170911 -160.271319 78.104006 21.624491 0.316777 -57.895495 -26.531983 -21.471822 11.914528 -0.894665 25.214085 -22.126227 -57.006568 
-115.292047 0.000000 -27.992075 0.000000 90.292607 0.000000 0.757953 90.641006 0.627124 95.832113 -0.694509 179.741713 177.552530 -6.321101 -179.347367 -20.920301 -6.446188 -4.532704 78.790445 2.490821 -3.462157 21.454558 0.003125 0.000019 169.707866 -2.698813 -174.583228 -25.678294 4.246534 -3.387214 74.208447 1.700367 -1.907129 21.454553 -0.003089 -0.000001 8.357117 -1.086578 -0.734955 6.716790 -2.128721 -1.531800 6.398575 -2.138078 -1.518913 -5.233399 9.285954 6.742108 -14.736133 -14.097312 13.760762 -161.420223 -74.906831 -20.452798 -8.928535 49.747129 6.628238 -55.796091 -17.932523 2.175568 4.866672 -1.024000 13.063739 -160.856690 78.237414 21.026595 -0.971641 -58.662314 -27.526711 -21.652623 12.020784 -0.903938 27.112549 -21.586270 -58.953623 
-115.676877 0.000000 -28.081729 0.000000 90.182419 0.000000 1.016876 90.730881 0.407208 96.412469 -0.928203 179.256774 178.557923 -5.545852 -179.591649 -20.724470 -6.281295 -4.853787 78.841825 2.774366 -3.235418 21.454558 0.003117 0.000018 171.409206 -3.440443 -175.791001 -23.649510 3.110658 -2.241072 73.574616 -0.199907 -5.458648 21.454551 -0.003094 0.000000 8.380727 -1.012573 -0.455466 6.758084 -1.996842 -0.969257 6.439830 -2.002795 -0.957184 -5.033090 8.246767 6.538786 -14.666266 -13.865772 13.220969 -161.157845 -74.530965 -20.726191 -9.871975 50.080133 5.271048 -56.794375 -18.030476 2.218647 4.927563 -0.008798 14.253089 -161.448282 78.250887 20.424018 -2.596135 -59.180703 -28.225789 -21.985686 12.267053 -0.923729 27.659128 -20.626809 -59.432733 
-116.057007 0.000000 -28.151921 0.000000 90.078719 0.000000 1.246678 90.836746 0.199507 96.928705 -1.000207 178.754653 179.287125 -4.862904 179.993052 -20.867867 -5.912022 -5.097084 78.852839 2.985447 -3.063567 21.454560 0.003103 0.000017 172.781492 -4.097010 -177.470403 -22.134215 2.043821 -1.174189 73.227693 -1.164746 -6.180628 21.454551 -0.003095 0.000001 8.405740 -0.875123 -0.187839 6.802651 -1.737683 -0.426694 6.484410 -1.740352 -0.416204 -4.775253 7.147244 6.404309 -14.845442 -13.654854 12.781588 -160.958379 -73.870288 -20.939207 -10.720658 50.319980 4.050729 -57.669383 -18.049412 2.251844 5.002006 0.539420 15.764270 -162.119346 78.215141 19.741084 -4.491930 -59.439207 -28.286403 -22.438514 12.497362 -0.944899 26.913453 -18.941568 -59.221994 
